<svg width="13" height="13" viewBox="0 0 13 13" fill="none" xmlns="http://www.w3.org/2000/svg">
<path d="M10.9207 8.38004V11.38C10.918 11.6746 10.7959 11.9565 10.5802 12.1657C10.3646 12.3749 10.0726 12.4948 9.76629 12.5H1.18629C0.877363 12.5 0.581089 12.382 0.362647 12.172C0.144205 11.962 0.0214844 11.6771 0.0214844 11.38V3.18003C0.0214722 2.88206 0.143864 2.59616 0.362012 2.38452C0.580161 2.17289 0.87641 2.05266 1.18629 2.05002H5.08629C5.1911 2.05002 5.29162 2.09005 5.36573 2.16132C5.43985 2.23258 5.48148 2.32924 5.48148 2.43003V3.18003C5.4815 3.22947 5.47122 3.27842 5.45124 3.32398C5.43125 3.36953 5.40197 3.41076 5.36513 3.44525C5.32829 3.47975 5.28464 3.50679 5.23674 3.52478C5.18885 3.54278 5.13769 3.55136 5.08629 3.55002H1.58148V11.05H9.38148V8.38004C9.38009 8.33061 9.38902 8.2814 9.40774 8.23535C9.42645 8.1893 9.45458 8.14733 9.49045 8.11191C9.52632 8.07649 9.56921 8.04833 9.61659 8.02912C9.66396 8.0099 9.71487 8.00001 9.76629 8.00003H10.5463C10.6475 8.00516 10.7427 8.04745 10.8124 8.11817C10.8821 8.18888 10.9208 8.28263 10.9207 8.38004ZM12.4807 1.07004V4.07004C12.4937 4.19113 12.4652 4.31298 12.3997 4.41715C12.3342 4.52132 12.2352 4.60213 12.1176 4.64734C12.0001 4.69255 11.8704 4.69969 11.7483 4.6677C11.6261 4.6357 11.5181 4.56632 11.4407 4.47003L10.5671 3.63004L4.62868 9.34003C4.51396 9.44023 4.36734 9.50013 4.21269 9.51001C4.05804 9.50013 3.91142 9.44023 3.79669 9.34003L3.24549 8.81003C3.14435 8.69876 3.08565 8.55768 3.07909 8.41004C3.08565 8.26239 3.14435 8.12128 3.24549 8.01001L9.18389 2.30002L8.32069 1.47003C8.22845 1.39295 8.16324 1.29033 8.13399 1.17624C8.10473 1.06215 8.11286 0.94218 8.15726 0.832705C8.20166 0.723231 8.28017 0.62962 8.38203 0.5647C8.48389 0.499779 8.60413 0.466716 8.72629 0.470034H11.8463C11.9299 0.46582 12.0134 0.478371 12.0917 0.5069C12.17 0.535428 12.2412 0.579312 12.3009 0.635745C12.3605 0.692178 12.4073 0.759921 12.4383 0.834689C12.4693 0.909457 12.4837 0.989616 12.4807 1.07004Z" fill="white"/>
</svg>
